<svg width="115" height="115" viewBox="0 0 115 115" fill="none" xmlns="http://www.w3.org/2000/svg">
<rect width="115" height="115" rx="31" fill="#B06161"/>
<path d="M26.7918 82.625H68.6668V85.4167C68.6668 86.9242 67.4384 88.2084 65.8751 88.2084H29.5834C28.048 88.2084 26.7918 86.9242 26.7918 85.4167V82.625ZM81.2293 89.0738L68.6668 76.5671V77.0417H26.7918V71.4584H63.558L57.9747 65.875H26.7918C26.7918 56.83 33.6593 51.4421 41.8109 49.7113L25.8984 33.7709L29.8626 29.8625L60.2918 60.2917L65.8751 65.875L85.1376 85.1375L81.2293 89.0738ZM52.3914 60.2917L46.808 54.7084C42.8439 54.8759 36.9814 56.2717 34.1059 60.2917H52.3914ZM88.2084 37.9584H74.2501V26.7917H68.6668V37.9584H54.7084L55.3505 43.5417H82.0389L79.2472 71.3746L84.3559 76.4834L88.2084 37.9584Z" fill="#F8F8F8"/>
</svg>
