<svg width="115" height="115" viewBox="0 0 115 115" fill="none" xmlns="http://www.w3.org/2000/svg">
<rect width="115" height="115" rx="31" fill="#B06161"/>
<path d="M43.3333 60.5556V74.7778M72.6667 32.1111V33.8889C72.6667 35.7749 73.4393 37.5836 74.8146 38.9172C76.1898 40.2508 78.0551 41 80 41C81.9449 41 83.8102 41.7492 85.1854 43.0828C86.5607 44.4164 87.3333 46.2251 87.3333 48.1111V49.8889M25 25L91 89M76.3333 60.5556H87.3333C88.3058 60.5556 89.2384 60.9302 89.9261 61.597C90.6137 62.2638 91 63.1681 91 64.1111V71.2222C91 72.2178 90.5783 73.1173 89.9 73.7609M76.3333 74.7778H28.6667C27.6942 74.7778 26.7616 74.4032 26.0739 73.7364C25.3863 73.0696 25 72.1652 25 71.2222V64.1111C25 63.1681 25.3863 62.2638 26.0739 61.597C26.7616 60.9302 27.6942 60.5556 28.6667 60.5556H61.6667" stroke="#F8F8F8" stroke-width="4" stroke-linecap="round" stroke-linejoin="round"/>
</svg>
