<svg width="115" height="115" viewBox="0 0 115 115" fill="none" xmlns="http://www.w3.org/2000/svg">
<rect width="115" height="115" rx="31" fill="#B06161"/>
<g clip-path="url(#clip0_179_49)">
<path d="M23.9578 30.2582C29.8483 38.966 34.2243 52.8093 34.1244 64.1781C34.0531 72.2597 37.6839 73.7821 42.1021 72.5152L44.5544 71.8401C48.4391 66.6919 53.8406 66.8292 59.4647 67.7464L68.1248 65.3668C74.18 63.6305 70.1939 56.6673 64.8389 59.3763L50.9916 55.6056C43.9001 50.407 39.5704 32.389 39.3429 25.8998L23.9579 30.2582L23.9578 30.2582Z" fill="white"/>
</g>
<path d="M66.5 82.7083C66.5 85.5925 67.6062 88.3586 69.5754 90.398C71.5445 92.4375 74.2152 93.5833 77 93.5833C77 87.5416 72.2983 82.7083 66.5 82.7083ZM77 73.6458C77.7735 73.6458 78.5154 73.964 79.0624 74.5305C79.6094 75.097 79.9167 75.8654 79.9167 76.6666C79.9167 77.4678 79.6094 78.2361 79.0624 78.8026C78.5154 79.3692 77.7735 79.6874 77 79.6874C76.2265 79.6874 75.4846 79.3692 74.9376 78.8026C74.3906 78.2361 74.0833 77.4678 74.0833 76.6666C74.0833 75.8654 74.3906 75.097 74.9376 74.5305C75.4846 73.964 76.2265 73.6458 77 73.6458ZM69.5333 79.3853C69.5333 80.1865 69.8406 80.9549 70.3876 81.5214C70.9346 82.0879 71.6765 82.4062 72.45 82.4062C73.0683 82.4062 73.64 82.2008 74.0833 81.8745V82.1041C74.0833 82.9053 74.3906 83.6736 74.9376 84.2401C75.4846 84.8067 76.2265 85.1249 77 85.1249C77.7735 85.1249 78.5154 84.8067 79.0624 84.2401C79.6094 83.6736 79.9167 82.9053 79.9167 82.1041V81.8745C80.36 82.2008 80.9317 82.4062 81.55 82.4062C82.3235 82.4062 83.0654 82.0879 83.6124 81.5214C84.1594 80.9549 84.4667 80.1865 84.4667 79.3853C84.4667 78.177 83.7783 77.1499 82.7983 76.6666C83.7783 76.1833 84.4667 75.1441 84.4667 73.9478C84.4667 73.1467 84.1594 72.3783 83.6124 71.8118C83.0654 71.2453 82.3235 70.927 81.55 70.927C80.9317 70.927 80.36 71.1203 79.9167 71.4587V71.2291C79.9167 70.4279 79.6094 69.6595 79.0624 69.093C78.5154 68.5265 77.7735 68.2083 77 68.2083C76.2265 68.2083 75.4846 68.5265 74.9376 69.093C74.3906 69.6595 74.0833 70.4279 74.0833 71.2291V71.4587C73.64 71.1203 73.0683 70.927 72.45 70.927C71.6765 70.927 70.9346 71.2453 70.3876 71.8118C69.8406 72.3783 69.5333 73.1467 69.5333 73.9478C69.5333 75.1441 70.2217 76.1833 71.2017 76.6666C70.2217 77.1499 69.5333 78.177 69.5333 79.3853ZM77 93.5833C79.7848 93.5833 82.4555 92.4375 84.4246 90.398C86.3938 88.3586 87.5 85.5925 87.5 82.7083C81.6667 82.7083 77 87.5416 77 93.5833Z" fill="white"/>
<path d="M20.7012 20.2878L91.7012 90.2878" stroke="white" stroke-width="2" stroke-linecap="round"/>
<defs>
<clipPath id="clip0_179_49">
<rect width="41.5061" height="49.3601" fill="white" transform="translate(20 29.4407) rotate(-16)"/>
</clipPath>
</defs>
</svg>
