<svg width="115" height="115" viewBox="0 0 115 115" fill="none" xmlns="http://www.w3.org/2000/svg">
<rect width="115" height="115" rx="31" fill="#B06161"/>
<path d="M32.0023 64.5713H51.4735C52.5947 64.5709 53.6699 64.1058 54.4626 63.2783C55.2553 62.4508 55.7006 61.3287 55.7006 60.1588V40.5885C59.6648 40.4239 62.042 35.8313 59.9227 32.2622L58.684 30.1776C58.2157 29.3884 57.562 28.737 56.7849 28.2852C56.0078 27.8334 55.133 27.5961 54.2433 27.5959H50.7079V25.9656C50.7079 25.293 50.452 24.6479 49.9964 24.1722C49.5407 23.6964 48.9227 23.4289 48.2781 23.4285C46.6802 23.4298 45.1481 24.093 44.0186 25.2724C42.889 26.4517 42.2542 28.0508 42.2538 29.7182V38.6068C39.1044 38.9273 36.7272 40.4839 34.9808 42.6713C33.0521 45.0885 31.9169 48.2393 31.2401 51.265C30.5616 54.3079 30.3201 57.3302 30.2494 59.5793C30.2235 60.3859 30.2164 61.193 30.2281 61.9999H28.6049C27.6585 61.9994 26.7328 61.7105 25.9416 61.1686C25.1503 60.6267 24.528 59.8554 24.1511 58.9496C23.7742 58.0437 23.6591 57.0426 23.8199 56.0694C23.9807 55.0962 24.4105 54.1932 25.0563 53.4713L27.3235 50.9342C28.8865 49.1852 29.7377 46.8714 29.6979 44.4803C29.6581 42.0892 28.7302 39.8077 27.1099 38.1165L24.8871 35.7936C24.7743 35.6673 24.6383 35.566 24.4872 35.4957C24.336 35.4254 24.1729 35.3876 24.0074 35.3846C23.842 35.3816 23.6776 35.4133 23.5242 35.478C23.3708 35.5426 23.2314 35.6389 23.1144 35.761C22.9974 35.8831 22.9052 36.0285 22.8432 36.1886C22.7812 36.3487 22.7508 36.5202 22.7537 36.6928C22.7567 36.8654 22.7929 37.0357 22.8602 37.1934C22.9276 37.3511 23.0246 37.493 23.1457 37.6108L25.3718 39.9353C26.5408 41.1547 27.2102 42.8003 27.2387 44.5248C27.2672 46.2494 26.6526 47.918 25.5246 49.1788L23.2574 51.7159C22.2854 52.8043 21.6389 54.165 21.3971 55.6312C21.1553 57.0974 21.3289 58.6053 21.8964 59.9701C22.464 61.3349 23.4008 62.4972 24.5922 63.3146C25.7835 64.1319 27.1775 64.5686 28.6033 64.5713H32.0023ZM48.2453 25.9999V28.8833C48.2453 29.5948 48.7956 30.169 49.4774 30.169H54.2417C55.1995 30.169 56.0866 30.685 56.591 31.5336L57.8281 33.6199C58.9698 35.5399 57.6473 38.0239 55.4804 38.0239H54.4684C54.1416 38.0239 53.8282 38.1594 53.5972 38.4005C53.3661 38.6416 53.2363 38.9686 53.2363 39.3096V60.1588C53.2363 61.1753 52.4477 61.9999 51.4735 61.9999H49.7091V60.1588C49.7095 59.1687 49.523 58.1883 49.1603 57.2735C48.7976 56.3587 48.2657 55.5275 47.5951 54.8272C46.9244 54.1269 46.1281 53.5713 45.2517 53.1922C44.3752 52.8131 43.4358 52.6178 42.4871 52.6176H39.9899C39.6631 52.6176 39.3497 52.7531 39.1187 52.9942C38.8876 53.2353 38.7578 53.5623 38.7578 53.9033C38.7578 54.2443 38.8876 54.5713 39.1187 54.8125C39.3497 55.0536 39.6631 55.189 39.9899 55.189H42.4871C45.1156 55.189 47.2464 57.4142 47.2464 60.1588V61.9999H32.6907C32.6784 61.221 32.685 60.4419 32.7104 59.6633C32.7794 57.5136 33.0078 54.6713 33.6386 51.8496C34.2728 49.0125 35.2913 46.2988 36.8734 44.3188C38.4177 42.3833 40.5156 41.1165 43.4859 41.1165C43.6477 41.1165 43.808 41.0832 43.9574 41.0186C44.1069 40.954 44.2428 40.8593 44.3572 40.7399C44.4716 40.6205 44.5624 40.4788 44.6243 40.3228C44.6862 40.1668 44.7181 39.9996 44.7181 39.8308V29.7165C44.7181 27.6765 46.2936 26.0188 48.2453 25.9999Z" fill="#F8F8F8"/>
<path d="M75.8449 56.1471C74.9505 55.5021 73.9099 55.3 73.2004 55.3H70.0915C69.1176 55.3 68.1619 55.5645 67.3266 56.0654L63.4932 58.3659C63.1752 58.557 62.912 58.8271 62.7293 59.15C62.5466 59.4728 62.4505 59.8375 62.4504 60.2085V62.825C62.4504 63.6804 62.7902 64.5007 63.395 65.1055C63.9998 65.7103 64.8201 66.05 65.6754 66.05H66.7504V83.3318C65.8453 83.4715 64.938 83.8091 64.1812 84.439C63.0847 85.3506 62.4504 86.7546 62.4504 88.6251C62.4504 88.9102 62.5637 89.1836 62.7653 89.3852C62.9669 89.5868 63.2403 89.7001 63.5254 89.7001H88.2504C89.6036 89.7002 90.9226 89.2748 92.0207 88.4839C93.1187 87.6931 93.9402 86.5769 94.3689 85.2935C94.7976 84.01 94.8118 82.6242 94.4094 81.3322C94.0071 80.0402 93.2086 78.9075 92.1269 78.0944C91.8987 77.9297 91.615 77.8611 91.3368 77.9033C91.0586 77.9455 90.808 78.0951 90.6389 78.32C90.4697 78.5448 90.3955 78.8271 90.4321 79.1061C90.4687 79.3851 90.6133 79.6386 90.8347 79.8122C91.5561 80.3542 92.0888 81.1094 92.3572 81.9708C92.6256 82.8323 92.6163 83.7564 92.3304 84.6122C92.0446 85.468 91.4968 86.2123 90.7645 86.7395C90.0323 87.2668 89.1528 87.5504 88.2504 87.5501C87.6312 87.5501 87.2399 87.3996 86.9819 87.2276C86.7257 87.0529 86.5214 86.8122 86.3907 86.5309C86.2154 86.1786 86.1165 85.7932 86.1004 85.4001V85.3033L86.0918 85.0668C86.0832 84.8604 86.0617 84.5773 86.0273 84.2175C85.9303 83.2603 85.7651 82.3111 85.5328 81.3774C84.9674 79.1199 83.8214 76.226 81.4865 73.8889C77.5219 69.9265 77.5004 64.6117 77.5004 62.825V59.6C77.5004 57.9596 76.7909 56.8308 75.8449 56.1471ZM75.5138 65.835C75.8471 68.5354 76.8662 72.3108 79.9643 75.4111C81.9294 77.3741 82.9335 79.8552 83.4452 81.8977C83.7121 82.9686 83.8791 84.0619 83.944 85.1636L83.9504 85.3506V85.471L83.959 85.6151C84.004 86.29 84.1869 86.9486 84.4965 87.5501H71.2246C71.4396 86.8621 71.876 86.1547 72.6264 85.7612C73.1375 85.5057 73.7043 85.3816 74.2754 85.4001H76.4254C76.7106 85.4001 76.984 85.2868 77.1856 85.0852C77.3872 84.8836 77.5004 84.6102 77.5004 84.3251C77.5004 84.0399 77.3872 83.7665 77.1856 83.5649C76.984 83.3633 76.7106 83.2501 76.4254 83.2501H74.2754C73.897 83.2501 73.5387 83.2787 73.2004 83.336V77.875C73.2004 77.5899 73.0872 77.3165 72.8856 77.1149C72.684 76.9133 72.4106 76.8 72.1254 76.8C71.8403 76.8 71.5669 76.9133 71.3653 77.1149C71.1637 77.3165 71.0504 77.5899 71.0504 77.875V84.2133C69.8034 85.112 69.2294 86.4493 69.0122 87.5501H64.7122C64.8735 86.8449 65.196 86.3912 65.5572 86.0924C66.1097 85.6301 66.9117 85.4001 67.8254 85.4001C68.1106 85.4001 68.384 85.2868 68.5856 85.0852C68.7872 84.8836 68.9004 84.6102 68.9004 84.3251V64.975C68.9004 64.6899 68.7872 64.4165 68.5856 64.2149C68.384 64.0133 68.1106 63.9 67.8254 63.9H65.6754C65.3903 63.9 65.1169 63.7868 64.9153 63.5852C64.7137 63.3836 64.6004 63.1102 64.6004 62.825V60.2085L68.4317 57.908C68.9333 57.6077 69.507 57.4495 70.0915 57.45H73.2004C73.5659 57.45 74.1378 57.5683 74.5872 57.8929C74.9849 58.1767 75.3504 58.6605 75.3504 59.6V62.825C75.3504 63.0121 75.2859 63.3152 75.1225 63.541C75 63.713 74.785 63.9 74.2754 63.9C73.7659 63.9 73.5509 63.7108 73.4283 63.541C73.283 63.3302 73.2037 63.081 73.2004 62.825C73.2004 62.5399 73.0872 62.2665 72.8856 62.0649C72.684 61.8633 72.4106 61.75 72.1254 61.75C71.8403 61.75 71.5669 61.8633 71.3653 62.0649C71.1637 62.2665 71.0504 62.5399 71.0504 62.825C71.0504 63.3561 71.2009 64.1279 71.6825 64.7966C72.205 65.5211 73.065 66.05 74.2754 66.05C74.6979 66.055 75.1178 65.9822 75.5138 65.835Z" fill="#F8F8F8"/>
<path d="M18.3438 18.6375L97.3437 93.6374" stroke="white" stroke-width="2" stroke-linecap="round"/>
</svg>
