<svg width="115" height="115" viewBox="0 0 115 115" fill="none" xmlns="http://www.w3.org/2000/svg">
<rect width="115" height="115" rx="31" fill="#B06161"/>
<path d="M57.1111 45.2354C56.6294 45.2353 56.2852 45.2347 56.012 45.2183C56.0103 45.2173 56.0086 45.2162 56.0069 45.2152C55.8306 45.1083 55.6493 44.9983 55.489 44.905C55.2829 44.6667 55.0819 44.3983 54.8907 44.1146C54.5365 43.5889 54.2431 43.0517 54.0371 42.6417C53.9394 42.4473 53.8627 42.2843 53.8098 42.1683L53.8526 40.6602L55.1013 40.0357L55.6364 39.7681L55.6535 39.17L55.7222 36.7694L55.7517 35.7401L54.722 35.7408C54.405 35.741 54.2349 35.6984 54.153 35.6678C54.1583 35.6473 54.1659 35.6221 54.177 35.5914C54.3473 35.1193 55.0376 34.3576 56.0641 33.9271L56.1353 33.8973L56.2011 33.8568C58.3816 32.5164 59.8137 31.9768 60.9956 32.0008L61.0897 32.0051C61.7876 32.0375 62.477 32.2729 63.2603 32.7874L63.2603 32.7874C64.4024 33.5374 65.3875 35.138 66.1116 36.7241C66.4613 37.4901 66.7287 38.204 66.9087 38.7267C66.9984 38.9875 67.0658 39.199 67.1104 39.3438C67.1314 39.412 67.1472 39.4653 67.1579 39.5017L67.2628 40.1858L67.9897 40.2961C68.8444 40.4259 69.7567 40.6397 70.6818 40.9828L70.6694 41.0139L71.5362 41.3367C71.5518 41.3438 71.5673 41.351 71.5829 41.3583L71.5849 41.3548L71.6286 41.3711C71.6133 41.3654 71.5989 41.3596 71.5855 41.3538L71.7227 41.1183L72.0942 40.4805C72.3848 40.5964 72.5713 40.6709 72.6912 40.7188C72.6838 40.7212 72.6763 40.7238 72.6688 40.7265C72.5798 40.7585 72.4511 40.8186 72.3258 40.9331C72.2617 40.9916 72.1996 41.0636 72.1464 41.1501C72.0929 41.2371 72.0532 41.3312 72.0282 41.429C71.9779 41.6257 71.9958 41.7995 72.0264 41.9232C72.0561 42.0439 72.1023 42.1362 72.1365 42.1951C72.172 42.256 72.208 42.3037 72.2355 42.3372C72.2637 42.3716 72.2905 42.4 72.3126 42.4221C72.3559 42.4652 72.3974 42.5002 72.4295 42.5258C72.463 42.5525 72.4964 42.577 72.5277 42.5989C72.5896 42.6424 72.6586 42.6865 72.731 42.7306C72.876 42.819 73.065 42.9254 73.2998 43.0513C73.7431 43.2889 74.3813 43.6128 75.2618 44.0421C76.1122 44.9636 76.8556 46.0607 77.46 47.2985L77.4605 47.2994C78.5814 49.5889 79.4468 51.661 80.0923 53.7644L80.2401 54.2461L80.7152 54.4139L84.2148 55.6503C84.4427 55.7393 84.7857 55.8293 85.1238 55.918C85.1884 55.9349 85.2528 55.9518 85.3161 55.9686C85.7717 56.0896 86.3204 56.2412 86.9277 56.4506C88.1443 56.87 89.5739 57.5142 90.8864 58.5701C93.4423 60.6263 95.7594 64.4085 94.7647 71.7939C94.3032 75.22 92.1164 78.5398 88.7657 80.3101L89.2328 81.1943L88.7656 80.3101C87.0868 81.1971 85.0542 81.4639 83.365 81.5105C82.531 81.5335 81.8052 81.5026 81.2738 81.4754C81.2175 81.4725 81.162 81.4696 81.1078 81.4668C80.9168 81.4567 80.7427 81.4475 80.613 81.4443C80.5349 81.4424 80.4277 81.4411 80.3265 81.4502C80.3252 81.4503 80.3239 81.4504 80.3226 81.4506L80.3172 81.45C80.249 81.4435 80.1641 81.4353 80.1127 81.4339C80.1042 81.4337 80.0842 81.4332 80.0589 81.4339C80.0465 81.4342 80.0236 81.435 79.9951 81.4376C79.9772 81.4391 79.9082 81.4452 79.823 81.4682C79.7845 81.4786 79.6865 81.5069 79.5753 81.5725C79.5355 81.596 79.4535 81.648 79.3675 81.7359C79.331 81.7455 79.2918 81.7559 79.2476 81.7678C79.1642 81.7904 79.0363 81.8255 78.917 81.87C74.1386 83.2324 68.9424 82.1935 64.7331 78.795C64.7327 78.7947 64.7324 78.7944 64.7321 78.7941C64.7162 78.7796 64.6971 78.7628 64.6784 78.7463C64.6393 78.7121 64.5842 78.6643 64.5168 78.6063C64.3814 78.4896 64.1885 78.3244 63.9582 78.1277C63.502 77.7379 62.8949 77.2208 62.287 76.7031L62.2684 76.6872C62.1577 76.593 62.0471 76.4987 61.9374 76.4053L61.9532 76.3721L61.3464 75.876C58.4608 73.5172 55.7402 71.0087 54.1377 67.5391L54.1377 67.539C53.2976 65.7203 53.3454 64.2949 53.734 63.3089C54.1216 62.3251 54.8756 61.6958 55.6486 61.4616C55.6628 61.4625 55.6864 61.4647 55.721 61.4703C55.8258 61.4875 55.9793 61.528 56.1872 61.6041C56.6033 61.7563 57.1406 62.0149 57.7782 62.3682C59.0484 63.0721 60.6044 64.0887 62.1859 65.1855L63.7286 66.2553L63.7557 64.3782C63.8051 60.9485 63.6635 57.4812 63.5102 54.8764C63.4335 53.5727 63.3536 52.4823 63.2929 51.717C63.2625 51.3343 63.2369 51.0328 63.2189 50.8264C63.2099 50.7232 63.2027 50.6438 63.1978 50.5899L63.1922 50.5285L63.1908 50.5138L63.1907 50.5125L63.1899 50.5034C63.1889 50.4916 63.1875 50.4758 63.1856 50.4562C63.1818 50.417 63.176 50.3626 63.1677 50.2953C63.1511 50.1608 63.1242 49.9731 63.082 49.7493C62.9983 49.306 62.8508 48.7001 62.5933 48.0794C62.0945 46.8776 61.038 45.3209 58.9739 45.2583L58.9738 45.2583C58.2274 45.2357 57.6157 45.2355 57.1185 45.2354L57.1111 45.2354ZM54.1432 35.7406C54.1426 35.7409 54.1419 35.737 54.1423 35.7278C54.1439 35.7357 54.1437 35.7403 54.1432 35.7406ZM76.7772 39.6703C76.188 40.331 75.7723 40.9836 75.4848 41.531C75.1332 41.3701 74.7601 41.2107 74.4231 41.0759C74.2503 41.0068 74.0844 40.9431 73.9338 40.8884C73.7853 40.8345 73.6424 40.786 73.5182 40.7495C73.4564 40.7314 73.3892 40.7132 73.3223 40.6988C73.2885 40.6915 73.2487 40.6838 73.2054 40.6777C73.1649 40.6719 73.1043 40.665 73.0331 40.6648C73.0135 40.6647 72.9905 40.6651 72.9647 40.6666C72.9804 40.6305 72.9991 40.588 73.0208 40.5399C73.1003 40.3638 73.2185 40.114 73.3706 39.8257C73.6754 39.2481 74.0968 38.5542 74.5932 37.9881C78.2438 34.3749 82.5761 33.9171 86.2229 34.615C88.0567 34.966 89.6976 35.608 90.9488 36.2746C91.5741 36.6076 92.0909 36.9409 92.4789 37.2375C92.7264 37.4268 92.8998 37.5847 93.0132 37.7029L93.394 46.0654L91.7104 46.1789L91.2227 40.0367L91.1802 39.5016L90.7107 39.2413C86.488 36.9 83.1125 36.8394 80.7044 37.4887C78.3286 38.1292 77.0086 39.4288 76.8029 39.6426L76.7898 39.6562L76.7772 39.6703ZM57.7615 81.6595C59.1411 80.8519 60.1859 79.6223 60.9842 78.2726C61.5806 78.7889 62.1712 79.3003 62.6147 79.6875C62.631 79.7018 62.6471 79.7158 62.663 79.7297C59.8835 82.9593 55.46 83.4064 48.8702 82.7273C49.5164 82.4203 50.3582 82.1589 51.1218 82.0981C53.7759 82.9639 55.9808 82.7019 57.7615 81.6595ZM47.7379 82.574C47.7381 82.5739 47.7422 82.5756 47.749 82.5797C47.741 82.5762 47.7376 82.5742 47.7379 82.574ZM71.3564 58.8291L71.0754 58.2942L70.4712 58.2942C69.766 58.2942 69.0339 58.4474 68.4758 58.9818C67.9247 59.5096 67.7225 60.2381 67.678 60.9817C67.6479 61.3414 67.6184 61.6964 67.5894 62.0467C67.41 64.2087 67.245 66.1968 67.0179 68.0671L66.9488 68.6364L67.4053 68.9836C68.1272 69.5326 68.7396 70.0054 69.1712 70.3408C69.3871 70.5084 69.5576 70.6417 69.674 70.7329L69.8069 70.8371L69.8408 70.8638L69.8493 70.8704L69.8513 70.8721L69.8518 70.8724L69.8519 70.8725L70.4712 70.0873L69.8519 70.8725L71.0682 71.8317L71.4417 70.3284C71.8601 68.6437 72.1471 66.8674 72.3365 65.0855L72.349 64.9675L72.3336 64.8499C72.2105 63.9104 72.2673 63.443 72.3274 62.9484C72.3516 62.7499 72.3762 62.5472 72.39 62.3078C72.4432 61.3833 72.2295 60.4911 71.3564 58.8291ZM83.0877 57.9578L81.1091 58.2497C81.1099 58.2557 81.1108 58.2617 81.1117 58.2677C81.8109 62.9452 81.6129 68.5578 80.539 77.3006L80.539 77.3011C80.4902 77.6995 80.682 77.9825 80.7994 78.1106C80.9129 78.2345 81.0312 78.302 81.0864 78.3313C81.2043 78.3937 81.3162 78.4255 81.3739 78.4406C81.507 78.4755 81.6579 78.4981 81.802 78.5136C82.1017 78.546 82.5015 78.5614 82.965 78.5465C83.8922 78.5168 85.1409 78.3635 86.4305 77.9339C89.0422 77.0639 91.8828 75.0188 92.3907 70.6414C92.9043 66.2165 91.4725 63.4476 89.7982 61.7963C88.9788 60.988 88.1272 60.4725 87.479 60.1579C87.1541 60.0002 86.8771 59.8915 86.676 59.8208C86.5753 59.7854 86.4933 59.7594 86.4333 59.7414C86.4136 59.7355 86.3962 59.7305 86.3814 59.7263C85.7573 59.4976 85.1324 59.2715 84.5097 59.0464L84.4914 59.0397C84.0518 58.8808 83.6134 58.7222 83.1759 58.563C83.1572 58.4208 83.1379 58.2778 83.1178 58.142C83.111 58.0933 83.1032 58.0491 83.0984 58.0218L83.0983 58.0211C83.0934 57.9932 83.091 57.9795 83.0894 57.9693C83.0888 57.9655 83.0882 57.9617 83.0877 57.9578Z" fill="#B06161" stroke="white" stroke-width="2"/>
<path d="M24.9425 56.2241L27.6211 56.6483C28.8182 56.8379 30.0053 57.1902 31.122 57.6803C33.1161 58.5533 35.2465 58.9527 37.411 58.8593C38.4733 58.8105 39.5346 58.6453 40.5387 58.2276C41.4443 57.8486 42.5686 57.2934 43.3749 56.598C44.1798 55.9038 45.0939 54.7046 45.7564 53.7585C46.3273 52.9466 46.2894 51.8353 45.7128 51.0728C45.3864 50.658 44.9561 50.3944 44.4835 50.3195C44.0109 50.2447 43.5202 50.3625 43.0816 50.656L40.613 52.3811C39.6564 53.0512 38.6331 53.6441 37.5186 53.6923C37.3841 53.6979 37.244 53.7 37.0984 53.6987M37.0984 53.6987L36.9652 53.6962M37.0984 53.6987C37.2985 53.6631 37.4921 53.5659 37.662 53.4159C37.8721 53.2473 38.0563 53.0297 38.2038 52.776C38.3512 52.5224 38.4589 52.2378 38.5205 51.939C38.5821 51.6403 38.5963 51.3336 38.5623 51.037C38.5283 50.7404 38.4467 50.46 38.3225 50.2123C38.2027 49.969 38.0524 49.7534 37.877 49.5728C34.9617 46.5237 29.498 47.6287 25.9354 49.9556M37.0984 53.6987C37.0537 53.7041 37.009 53.7032 36.9652 53.6962M36.9652 53.6962C36.2359 53.6743 35.5155 53.5623 34.8142 53.3617" stroke="#F8F8F8" stroke-width="2" stroke-linecap="round"/>
<path d="M26.1124 48.832C26.3108 47.5791 25.6757 46.4375 24.6939 46.2819C23.712 46.1264 22.7552 47.016 22.5567 48.2688L21.3591 55.8302C21.1607 57.0831 21.7958 58.2247 22.7777 58.3803C23.7595 58.5358 24.7164 57.6462 24.9148 56.3934L26.1124 48.832Z" stroke="#F8F8F8" stroke-width="2"/>
<path d="M19.6484 25.2393L94.6484 89.2393" stroke="white" stroke-width="2" stroke-linecap="round"/>
</svg>
