<svg width="115" height="115" viewBox="0 0 115 115" fill="none" xmlns="http://www.w3.org/2000/svg">
<rect width="115" height="115" rx="31" fill="#B06161"/>
<path d="M92.7402 86.5193L27.9997 24" stroke="white" stroke-width="3" stroke-linecap="round"/>
<path d="M65.8206 87.2455C67.1424 88.312 68.7889 88.8946 70.4873 88.8966H70.4942C70.8816 88.8966 71.2684 88.8641 71.6504 88.7995L86.4736 86.487C87.4417 86.3363 88.3705 85.9954 89.2063 85.484C90.0421 84.9726 90.7683 84.3007 91.3432 83.5073C91.918 82.7138 92.3301 81.8143 92.5556 80.8608C92.7812 79.9073 92.8157 78.9185 92.6572 77.9516L86.0573 32.1363C85.9061 30.718 85.2359 29.4055 84.1755 28.4515C83.1151 27.4974 81.7395 26.969 80.3131 26.9679H35.6841C34.2722 26.9696 32.9096 27.4879 31.8535 28.4251C30.7975 29.3623 30.1209 30.6536 29.9514 32.0554L23.3377 77.9631C23.0457 79.8904 23.5235 81.8553 24.6679 83.4333C25.8124 85.0112 27.5316 86.0757 29.4543 86.3968L44.2681 88.7093C46.1541 89.0121 48.0844 88.5784 49.6597 87.4981C51.235 86.4178 52.3348 84.7734 52.7319 82.905L56.3533 64.8513H59.6439L63.2214 83.0321C63.5821 84.6925 64.5002 86.1771 65.8206 87.2455ZM62.6525 61.2391C61.8618 60.5806 60.8649 60.2205 59.8359 60.2216L59.8243 60.2378H56.2076C55.1831 60.2841 54.1957 60.631 53.3748 61.2438C52.5885 61.8913 52.0474 62.7885 51.8485 63.7875L48.2109 81.9522C48.0575 82.6582 47.639 83.2783 47.0418 83.6849C46.4447 84.0915 45.7143 84.2535 45.0012 84.1375L30.2012 81.825C29.4807 81.6997 28.8378 81.2972 28.4104 80.7037C27.9829 80.1103 27.8048 79.3731 27.9141 78.65L31.8593 51.2075C34.3422 49.6106 36.407 47.4427 37.881 44.8849C39.355 42.3271 40.1955 39.4536 40.3323 36.5046H52.5746L48.5231 51.4156C48.4453 51.7374 48.4959 52.0768 48.6643 52.3618C48.8327 52.6468 49.1056 52.8549 49.425 52.9419C49.5872 52.9983 49.7595 53.0199 49.9307 53.0054C50.1018 52.9909 50.268 52.9406 50.4184 52.8577C50.5689 52.7749 50.7002 52.6613 50.804 52.5244C50.9077 52.3875 50.9815 52.2304 51.0206 52.0631L55.2502 36.5046H60.7493L64.9789 52.0631C65.018 52.2304 65.0918 52.3875 65.1955 52.5244C65.2993 52.6613 65.4306 52.7749 65.5811 52.8577C65.7315 52.9406 65.8977 52.9909 66.0688 53.0054C66.24 53.0199 66.4123 52.9983 66.5745 52.9419C66.8939 52.8549 67.1668 52.6468 67.3352 52.3618C67.5036 52.0768 67.5542 51.7374 67.4764 51.4156L63.4249 36.5046H75.621C75.7654 39.455 76.6141 42.3279 78.0963 44.883C79.5784 47.4382 81.6509 49.6012 84.1403 51.1913L88.1062 78.6338V78.6893C88.1672 79.0544 88.1551 79.428 88.0706 79.7884C87.9862 80.1488 87.8311 80.4889 87.6143 80.789C87.3975 81.089 87.1233 81.3431 86.8076 81.5364C86.4919 81.7297 86.141 81.8585 85.7752 81.9152L70.9428 84.2277C70.2391 84.3402 69.5188 84.1821 68.9268 83.7853C68.3349 83.3885 67.915 82.7823 67.7516 82.0886L64.1695 63.8199C63.9815 62.8086 63.4447 61.8953 62.6525 61.2391ZM83.6893 48.0764C81.9692 46.655 80.5615 44.8933 79.5547 42.9019C78.5479 40.9106 77.9637 38.7326 77.8387 36.5046H82.0174L83.6893 48.0764ZM32.3056 48.0833L33.9706 36.5046H38.1123C37.994 38.7302 37.4174 40.9074 36.4186 42.8998C35.4198 44.8922 34.018 46.6569 32.3056 48.0833ZM56.2099 64.8605V64.8466H56.2261L56.2099 64.8605Z" fill="#F8F8F8"/>
</svg>
