<svg width="115" height="115" viewBox="0 0 115 115" fill="none" xmlns="http://www.w3.org/2000/svg">
<rect width="115" height="115" rx="31" fill="#B06161"/>
<path d="M62.3619 42.5647C63.3448 42.5647 64.2874 42.1743 64.9824 41.4793C65.6774 40.7843 66.0678 39.8417 66.0678 38.8588C66.0678 37.8759 65.6774 36.9333 64.9824 36.2383C64.2874 35.5433 63.3448 35.1528 62.3619 35.1528C61.3793 35.1528 60.437 35.5431 59.7423 36.2379C59.0475 36.9327 58.6572 37.875 58.6572 38.8575C58.6572 39.8401 59.0475 40.7824 59.7423 41.4771C60.437 42.1719 61.3793 42.5647 62.3619 42.5647ZM41.0162 60.0358C41.3525 60.0358 41.675 59.9022 41.9128 59.6645C42.1505 59.4267 42.2841 59.1042 42.2841 58.7679C42.2841 58.4317 42.1505 58.1092 41.9128 57.8714C41.675 57.6337 41.3525 57.5001 41.0162 57.5001C40.68 57.5001 40.3575 57.6337 40.1197 57.8714C39.882 58.1092 39.7484 58.4317 39.7484 58.7679C39.7484 59.1042 39.882 59.4267 40.1197 59.6645C40.3575 59.9022 40.68 60.0358 41.0162 60.0358ZM46.0877 72.7144C46.4239 72.7144 46.7464 72.5808 46.9842 72.343C47.222 72.1053 47.3555 71.7828 47.3555 71.4465C47.3555 71.1103 47.222 70.7878 46.9842 70.55C46.7464 70.3122 46.4239 70.1787 46.0877 70.1787C45.7514 70.1787 45.4289 70.3122 45.1912 70.55C44.9534 70.7878 44.8198 71.1103 44.8198 71.4465C44.8198 71.7828 44.9534 72.1053 45.1912 72.343C45.4289 72.5808 45.7514 72.7144 46.0877 72.7144ZM45.1368 62.5715C45.0527 62.5715 44.9721 62.6049 44.9127 62.6643C44.8532 62.7238 44.8198 62.8044 44.8198 62.8885V64.7903C44.8198 64.9652 44.9618 65.1072 45.1368 65.1072H47.0386C47.1226 65.1072 47.2032 65.0738 47.2627 65.0144C47.3221 64.9549 47.3555 64.8743 47.3555 64.7903V62.8885C47.3555 62.8044 47.3221 62.7238 47.2627 62.6643C47.2032 62.6049 47.1226 62.5715 47.0386 62.5715H45.1368ZM39.4466 66.2305C39.4171 66.26 39.3937 66.295 39.3777 66.3335C39.3617 66.372 39.3535 66.4133 39.3535 66.455C39.3535 66.4966 39.3617 66.5379 39.3777 66.5764C39.3937 66.6149 39.4171 66.6499 39.4466 66.6794L40.7906 68.0233C40.82 68.0528 40.855 68.0762 40.8935 68.0922C40.932 68.1082 40.9733 68.1164 41.015 68.1164C41.0567 68.1164 41.0979 68.1082 41.1365 68.0922C41.175 68.0762 41.2099 68.0528 41.2394 68.0233L42.5833 66.6794C42.6128 66.6499 42.6363 66.6149 42.6522 66.5764C42.6682 66.5379 42.6764 66.4966 42.6764 66.455C42.6764 66.4133 42.6682 66.372 42.6522 66.3335C42.6363 66.295 42.6128 66.26 42.5833 66.2305L41.2394 64.8866C41.18 64.8278 41.0998 64.7948 41.0162 64.7948C40.9327 64.7948 40.8525 64.8278 40.7931 64.8866L39.4466 66.2305Z" fill="#F8F8F8"/>
<path d="M93 57.5C93 77.1061 77.1061 93 57.5 93C37.8939 93 22 77.1061 22 57.5C22 37.8939 37.8939 22 57.5 22C77.1061 22 93 37.8939 93 57.5ZM81 76C84.6829 71.1556 88.01 63.8922 88 57.8068C88 42.4024 72.9045 27.5 57.5 27.5C51.1683 27.5 42.6784 30.9475 38 34.5L53.4936 48.1179L56.7646 45.1587C57.1733 44.7908 57.7033 44.5867 58.2531 44.5856H67.6023C68.4543 44.5856 69.2302 45.0725 69.6004 45.8383L75.3844 57.8068C75.6144 58.3328 75.6316 58.9275 75.4323 59.4659C75.233 60.0043 74.8328 60.4445 74.3157 60.694C73.7987 60.9435 73.2051 60.9829 72.6596 60.8038C72.1141 60.6248 71.6593 60.2413 71.3906 59.734L68.7535 54.2796V62.2367C68.7789 62.4565 68.7915 62.6813 68.7915 62.9112V63.4158L81 76ZM75.3844 81L68.7915 74.1698V78.1027C68.7915 78.6911 68.5578 79.2555 68.1417 79.6716C67.7256 80.0877 67.1612 80.3214 66.5728 80.3214C65.9843 80.3214 65.42 80.0877 65.0039 79.6716C64.5878 79.2555 64.354 78.6911 64.354 78.1027V69.7348L61.8589 67.2371V78.1027C61.8589 78.6911 61.6251 79.2555 61.209 79.6716C60.7929 80.0877 60.2286 80.3214 59.6401 80.3214C59.0517 80.3214 58.4873 80.0877 58.0713 79.6716C57.6552 79.2555 57.4214 78.6911 57.4214 78.1027V62.7996L49.9157 55.2939L45.8408 56.7393C45.286 56.936 44.6757 56.9042 44.1443 56.651C43.6129 56.3978 43.2038 55.9438 43.0071 55.389C42.8104 54.8342 42.8422 54.224 43.0954 53.6925C43.3486 53.1611 43.8026 52.7521 44.3574 52.5554L46.4367 51.82L33.5 39C29.8171 43.8444 26.99 51.7215 27 57.8068C27 73.2113 42.0169 88 57.4214 88C63.7531 88 70.706 84.5525 75.3844 81ZM56.6353 51.2545L57.5 52.1217V50.4735L56.6353 51.2545Z" fill="#F8F8F8"/>
</svg>
