<svg width="56" height="56" viewBox="0 0 56 56" fill="none" xmlns="http://www.w3.org/2000/svg">
<path d="M30.3366 46.5218C35.0436 45.9229 39.3459 43.5541 42.3692 39.897C45.3924 36.2398 46.9096 31.5687 46.6125 26.8331C46.3153 22.0975 44.2262 17.6526 40.7695 14.4021C37.3129 11.1515 32.7482 9.33905 28.0033 9.33317C23.2525 9.32963 18.6791 11.1376 15.215 14.3888C11.751 17.6399 9.65682 22.0895 9.35932 26.8309C9.06183 31.5724 10.5834 36.2488 13.6139 39.9075C16.6445 43.5661 20.956 45.9315 25.6699 46.5218V32.6665H21.0033V27.9998H25.6699V24.1405C25.6699 21.0208 25.9966 19.8892 26.6033 18.7482C27.2013 17.6196 28.1248 16.6969 29.2539 16.0998C30.1453 15.6215 31.2536 15.3345 33.1903 15.2108C33.9587 15.1611 34.9527 15.2233 36.1723 15.3975V19.8308H35.0056C32.8659 19.8308 31.9816 19.9312 31.4543 20.2135C31.1399 20.3757 30.8838 20.6318 30.7216 20.9462C30.4416 21.4735 30.3389 21.9962 30.3389 24.1382V27.9998H36.1723L35.0056 32.6665H30.3389L30.3366 46.5218ZM28.0033 51.3332C15.1163 51.3332 4.66992 40.8868 4.66992 27.9998C4.66992 15.1128 15.1163 4.6665 28.0033 4.6665C40.8903 4.6665 51.3366 15.1128 51.3366 27.9998C51.3366 40.8868 40.8903 51.3332 28.0033 51.3332Z" fill="white"/>
</svg>
