<svg width="35" height="35" viewBox="0 0 35 35" fill="none" xmlns="http://www.w3.org/2000/svg">
<g clip-path="url(#clip0_193_32)">
<path d="M10.2526 0.122341C8.39029 0.209841 7.11862 0.507341 6.00883 0.943383C4.84175 1.38548 3.78481 2.07617 2.91133 2.96755C2.02363 3.84345 1.33694 4.90184 0.898827 6.06942C0.468619 7.18359 0.175494 8.45817 0.0938269 10.319C0.0121602 12.1798 -0.00679814 12.7807 0.00195186 17.5334C0.0107019 22.2861 0.0325769 22.8811 0.122994 24.7478C0.211952 26.61 0.507994 27.8817 0.944035 28.993C1.3932 30.1436 1.99404 31.1178 2.9682 32.089C3.84494 32.9771 4.90437 33.6638 6.07299 34.1015C7.1857 34.5317 8.45883 34.8248 10.3211 34.9065C12.1849 34.9882 12.7842 35.0071 17.5355 34.9984C22.2867 34.9896 22.8847 34.9678 24.7499 34.8788C26.6165 34.7913 27.8809 34.4923 28.9936 34.0578C30.1602 33.6155 31.2166 32.9248 32.0897 32.0336C32.9777 31.1568 33.6644 30.0974 34.1022 28.9288C34.5324 27.8161 34.8255 26.543 34.9057 24.6821C34.9874 22.8155 35.0078 22.2176 34.9976 17.4663C34.9888 12.7151 34.9684 12.1186 34.8795 10.2519C34.792 8.38526 34.4945 7.11942 34.057 6.00672C33.6151 4.84029 32.9249 3.78388 32.0342 2.91067C31.1579 2.0228 30.099 1.3361 28.9309 0.898174C27.8167 0.469424 26.5451 0.174841 24.6813 0.096091C22.819 0.012966 22.2197 -0.00890902 17.467 -0.000159018C12.7142 0.00859098 12.1192 0.030466 10.2526 0.122341ZM10.4567 31.758C8.75049 31.6851 7.82445 31.4007 7.20758 31.163C6.44627 30.8848 5.75741 30.4387 5.19216 29.8578C4.60933 29.2949 4.16074 28.6081 3.87966 27.8482C3.63904 27.2313 3.35029 26.3053 3.27154 24.599C3.18404 22.7557 3.16654 22.2015 3.15487 17.529C3.14612 12.8565 3.16362 12.3038 3.24383 10.459C3.31674 8.75422 3.60258 7.82672 3.83883 7.20984C4.15383 6.39172 4.53445 5.80984 5.14404 5.19442C5.70728 4.61141 6.39465 4.16281 7.15508 3.88192C7.77195 3.6413 8.69654 3.35547 10.4028 3.2738C12.2476 3.1863 12.8003 3.1688 17.4728 3.15713C22.1438 3.14838 22.698 3.16588 24.5457 3.24755C26.249 3.32047 27.1765 3.60338 27.7934 3.84255C28.6101 4.15755 29.1934 4.53526 29.8088 5.14776C30.4242 5.76026 30.802 6.33922 31.1213 7.15734C31.362 7.77276 31.6492 8.69734 31.7295 10.405C31.817 12.2498 31.8374 12.804 31.8461 17.475C31.8534 22.1461 31.8374 22.7003 31.7572 24.545C31.6828 26.2513 31.3999 27.1773 31.1622 27.7971C30.8472 28.6138 30.4665 29.1971 29.8555 29.8096C29.2927 30.3925 28.6058 30.8411 27.8459 31.1221C27.2305 31.3628 26.303 31.6501 24.5997 31.7317C22.7534 31.8192 22.2007 31.8367 17.5267 31.8469C12.8528 31.8571 12.303 31.8367 10.4567 31.758ZM24.7236 8.14609C24.7242 8.56149 24.848 8.96739 25.0793 9.31245C25.3105 9.6575 25.639 9.9262 26.023 10.0846C26.407 10.2429 26.8294 10.2839 27.2367 10.2021C27.644 10.1204 28.0179 9.91976 28.3111 9.62551C28.6043 9.33127 28.8037 8.95667 28.884 8.5491C28.9643 8.14154 28.9219 7.71931 28.7622 7.33583C28.6025 6.95235 28.3327 6.62485 27.9868 6.39476C27.641 6.16466 27.2346 6.04231 26.8192 6.04317C26.2625 6.04433 25.7291 6.2665 25.3361 6.66083C24.9431 7.05516 24.7228 7.58939 24.7236 8.14609ZM8.5157 17.5173C8.52034 19.9004 9.47148 22.1841 11.1599 23.8659C12.8483 25.5478 15.1356 26.49 17.5187 26.4854C19.9018 26.4807 22.1855 25.5296 23.8673 23.8412C25.5491 22.1528 26.4914 19.8654 26.4867 17.4823C26.4524 15.1189 25.4882 12.8641 23.8031 11.2066C22.118 9.54901 19.8476 8.62213 17.4839 8.62674C15.1202 8.63134 12.8535 9.56706 11.1749 11.2312C9.49625 12.8953 8.54086 15.1538 8.5157 17.5173ZM11.6672 17.5115C11.6649 16.3578 12.0047 15.2293 12.6438 14.2687C13.2828 13.3082 14.1924 12.5587 15.2574 12.115C16.3224 11.6714 17.4951 11.5535 18.6271 11.7763C19.7591 11.9992 20.7996 12.5526 21.617 13.3668C22.4345 14.181 22.9921 15.2193 23.2194 16.3504C23.4468 17.4815 23.3336 18.6546 22.8942 19.7214C22.4549 20.7882 21.709 21.7007 20.751 22.3436C19.793 22.9865 18.6659 23.3309 17.5122 23.3332C16.7461 23.3347 15.9873 23.1853 15.279 22.8936C14.5706 22.6019 13.9267 22.1735 13.384 21.6329C12.8412 21.0923 12.4102 20.4501 12.1157 19.7429C11.8211 19.0358 11.6687 18.2776 11.6672 17.5115Z" fill="white"/>
</g>
<defs>
<clipPath id="clip0_193_32">
<rect width="35" height="35" fill="white"/>
</clipPath>
</defs>
</svg>
