<svg width="79" height="75" viewBox="0 0 79 75" fill="none" xmlns="http://www.w3.org/2000/svg">
<path d="M26.3327 43.3906C25.6524 43.3906 25.0599 43.151 24.5552 42.6719C24.0505 42.1927 23.7981 41.6302 23.7981 40.9844C23.7981 40.3385 24.0505 39.7771 24.5552 39.3C25.0599 38.8229 25.6524 38.5833 26.3327 38.5813C27.013 38.5792 27.6055 38.8188 28.1102 39.3C28.6149 39.7813 28.8673 40.3438 28.8673 40.9875C28.8673 41.6313 28.6149 42.1927 28.1102 42.6719C27.6055 43.151 27.013 43.3906 26.3327 43.3906ZM39.4993 43.3906C38.8191 43.3906 38.2266 43.151 37.7218 42.6719C37.2171 42.1927 36.9648 41.6302 36.9648 40.9844C36.9648 40.3385 37.2171 39.7771 37.7218 39.3C38.2266 38.8229 38.8191 38.5833 39.4993 38.5813C40.1796 38.5792 40.7721 38.8188 41.2768 39.3C41.7816 39.7813 42.0339 40.3438 42.0339 40.9875C42.0339 41.6313 41.7816 42.1927 41.2768 42.6719C40.7721 43.151 40.1796 43.3906 39.4993 43.3906ZM52.666 43.3906C51.9857 43.3906 51.3932 43.151 50.8885 42.6719C50.3838 42.1927 50.1314 41.6302 50.1314 40.9844C50.1314 40.3385 50.3838 39.7771 50.8885 39.3C51.3932 38.8229 51.9857 38.5833 52.666 38.5813C53.3463 38.5792 53.9388 38.8188 54.4435 39.3C54.9482 39.7813 55.2006 40.3438 55.2006 40.9875C55.2006 41.6313 54.9482 42.1927 54.4435 42.6719C53.9388 43.151 53.3463 43.3906 52.666 43.3906ZM18.4853 65.625C16.969 65.625 15.7039 65.1438 14.6901 64.1813C13.6762 63.2188 13.1682 62.0177 13.166 60.5781V20.6719C13.166 19.2344 13.674 18.0344 14.6901 17.0719C15.7061 16.1094 16.9712 15.6271 18.4853 15.625H24.3083V8.65625H27.8534V15.625H51.402V8.65625H54.6937V15.625H60.5166C62.0308 15.625 63.2959 16.1073 64.3119 17.0719C65.328 18.0365 65.8349 19.2375 65.8327 20.675V60.5781C65.8327 62.0156 65.3258 63.2167 64.3119 64.1813C63.2981 65.1458 62.0319 65.6271 60.5133 65.625H18.4853ZM18.4853 62.5H60.5166C61.0214 62.5 61.4855 62.3 61.909 61.9C62.3325 61.5 62.5432 61.0583 62.541 60.575V33.175H16.4577V60.5781C16.4577 61.0573 16.6683 61.4979 17.0897 61.9C17.511 62.3021 17.9751 62.5021 18.4821 62.5M16.4577 30.0469H62.541V20.6719C62.541 20.1927 62.3303 19.7521 61.909 19.35C61.4877 18.9479 61.0225 18.7479 60.5133 18.75H18.4853C17.9784 18.75 17.5132 18.95 17.0897 19.35C16.6662 19.75 16.4555 20.1917 16.4577 20.675V30.0469Z" fill="#F8F8F8"/>
</svg>
