<svg width="100" height="100" viewBox="0 0 100 100" fill="none" xmlns="http://www.w3.org/2000/svg">
<circle cx="50" cy="50" r="50" fill="#D9D9D9"/>
<path d="M58.0974 28.5174V56.8796H40.9091V28.5174H58.0974ZM58.0974 22.8439H40.9091C39.3893 22.8439 37.9318 23.4416 36.8571 24.5056C35.7824 25.5696 35.1787 27.0127 35.1787 28.5174V56.8796C35.1787 57.6246 35.3269 58.3624 35.6149 59.0508C35.9029 59.7391 36.325 60.3646 36.8571 60.8914C37.3892 61.4182 38.0209 61.8361 38.7162 62.1213C39.4114 62.4064 40.1566 62.5531 40.9091 62.5531H58.0974C59.6172 62.5531 61.0748 61.9554 62.1494 60.8914C63.2241 59.8274 63.8278 58.3843 63.8278 56.8796V28.5174C63.8278 27.7724 63.6796 27.0346 63.3916 26.3463C63.1036 25.6579 62.6815 25.0325 62.1494 24.5056C61.6173 23.9788 60.9856 23.5609 60.2903 23.2757C59.5951 22.9906 58.85 22.8439 58.0974 22.8439Z" fill="#395462"/>
<path d="M58.0976 63.3998H40.9093C39.1633 63.3983 37.4893 62.7108 36.2548 61.4883C35.0203 60.2658 34.3263 58.6083 34.3252 56.8796V28.5174C34.3271 26.7895 35.0212 25.1328 36.2553 23.911C37.4894 22.6891 39.1626 22.0019 40.9079 22H58.0962C59.8415 22.0019 61.5147 22.6891 62.7488 23.911C63.9829 25.1328 64.677 26.7895 64.6789 28.5174V56.8796C64.6778 58.6078 63.9842 60.2649 62.7503 61.4873C61.5165 62.7098 59.8432 63.3976 58.0976 63.3998ZM40.9079 23.6877C39.6146 23.6892 38.3747 24.1985 37.4602 25.104C36.5457 26.0094 36.0313 27.237 36.0298 28.5174V56.8796C36.0313 58.16 36.5457 59.3876 37.4602 60.293C38.3747 61.1985 39.6146 61.7078 40.9079 61.7093H58.0962C59.3898 61.7081 60.63 61.199 61.5448 60.2935C62.4596 59.3881 62.9742 58.1603 62.9757 56.8796V28.5174C62.9742 27.237 62.4598 26.0094 61.5453 25.104C60.6308 24.1985 59.3909 23.6892 58.0976 23.6877H40.9079ZM58.9485 57.7234H40.0556V27.6736H58.9485V57.7234ZM41.7602 56.0357H57.2439V29.3613H41.7602V56.0357Z" fill="#20363F"/>
<path d="M72.4185 32.772H26.5839C25.0641 32.772 23.6066 33.3697 22.5319 34.4337C21.4573 35.4977 20.8535 36.9408 20.8535 38.4455V63.9751C20.8535 65.4798 21.4573 66.9229 22.5319 67.9869C23.6066 69.0509 25.0641 69.6487 26.5839 69.6487H72.4185C73.9383 69.6487 75.3958 69.0509 76.4705 67.9869C77.5451 66.9229 78.1489 65.4798 78.1489 63.9751V38.4455C78.1489 36.9408 77.5451 35.4977 76.4705 34.4337C75.3958 33.3697 73.9383 32.772 72.4185 32.772Z" fill="#395462"/>
<path d="M72.4185 32.772H26.5839C23.419 32.772 20.8535 35.8296 20.8535 39.6002V70.328C20.8535 74.0986 23.419 77.1562 26.5839 77.1562H72.4185C75.5834 77.1562 78.1489 74.0986 78.1489 70.328V39.6002C78.1546 35.8296 75.5877 32.772 72.4185 32.772Z" fill="#395462"/>
<path opacity="0.5" d="M78.1546 38.5116V42.112C78.154 41.3669 78.0052 40.6291 77.7166 39.9409C77.428 39.2526 77.0053 38.6274 76.4727 38.101C75.94 37.5745 75.3078 37.1571 74.6122 36.8726C73.9166 36.588 73.1711 36.442 72.4185 36.4427H26.5839C25.0648 36.4427 23.6079 37.0399 22.5334 38.103C21.4589 39.166 20.8546 40.6081 20.8535 42.112V38.5116C20.8535 37.0069 21.4573 35.5638 22.5319 34.4998C23.6066 33.4358 25.0641 32.838 26.5839 32.838H72.4185C73.1715 32.8373 73.9173 32.9835 74.6132 33.2683C75.3091 33.5531 75.9414 33.9709 76.4742 34.4978C77.0069 35.0247 77.4295 35.6504 77.7178 36.3391C78.0061 37.0278 78.1546 37.766 78.1546 38.5116Z" fill="#283D48"/>
<path d="M72.4173 78H26.5827C22.9533 78 20 74.5584 20 70.3279V39.6001C20 35.3695 22.9533 31.928 26.5827 31.928H72.4173C76.0467 31.928 79 35.3695 79 39.6001V70.3279C79.0057 74.5584 76.0524 78 72.4173 78ZM26.5827 33.6157C23.8922 33.6157 21.7046 36.3006 21.7046 39.6001V70.3279C21.7046 73.6273 23.8922 76.3122 26.5827 76.3122H72.4173C75.1063 76.3122 77.2954 73.6273 77.2954 70.3279V39.6001C77.2954 36.3006 75.1078 33.6157 72.4173 33.6157H26.5827Z" fill="#20363F"/>
<path d="M38.8008 47.9235V51.2469C38.8008 52.4543 39.2852 53.6123 40.1476 54.4661C41.0099 55.3198 42.1795 55.7995 43.399 55.7995H55.6056C56.8248 55.7987 57.9939 55.3186 58.8557 54.4646C59.7174 53.6106 60.2013 52.4526 60.201 51.2455V47.9235" fill="#E7E7E7"/>
<path d="M38.8008 48.1892H60.2038V50.0584H38.8008V48.1892Z" fill="#CED0D0"/>
<path d="M20.8525 47.0796H78.1536V48.7673H20.8525V47.0796Z" fill="#20363F"/>
<path d="M55.6053 56.6419H43.3988C41.9537 56.6405 40.5682 56.0714 39.5463 55.0597C38.5245 54.048 37.9497 52.6762 37.9482 51.2455V47.9235H39.6529V51.2469C39.654 52.2301 40.049 53.1728 40.7513 53.8681C41.4535 54.5634 42.4057 54.9545 43.3988 54.9556H55.6053C56.5982 54.9538 57.5498 54.5621 58.2515 53.8666C58.9532 53.1711 59.3477 52.2285 59.3484 51.2455V47.9235H61.053V51.2469C61.0512 52.6769 60.4767 54.0479 59.4555 55.0592C58.4343 56.0705 57.0497 56.6397 55.6053 56.6419Z" fill="#20363F"/>
<path d="M47.6162 51.2313H51.392V52.3565H47.6162V51.2313Z" fill="#20363F"/>
<path d="M75.2428 62.6011C75.5432 62.5936 75.7491 61.1095 75.7028 59.2863C75.6566 57.463 75.3755 55.9911 75.0751 55.9985C74.7748 56.006 74.5688 57.4901 74.6151 59.3133C74.6614 61.1366 74.9424 62.6086 75.2428 62.6011Z" fill="white"/>
<path d="M75.0593 54.4865C75.3597 54.479 75.5845 53.7339 75.5613 52.8223C75.5382 51.9107 75.2759 51.1777 74.9755 51.1852C74.6751 51.1927 74.4504 51.9377 74.4735 52.8494C74.4967 53.761 74.759 54.4939 75.0593 54.4865Z" fill="white"/>
</svg>
