<svg width="100" height="100" viewBox="0 0 100 100" fill="none" xmlns="http://www.w3.org/2000/svg">
<circle cx="50" cy="50" r="50" fill="#D9D9D9"/>
<g clip-path="url(#clip0_185_58)">
<path d="M29.2231 49.3334C32.9197 49.3334 36.0854 51.4773 37.6381 54.5694L44.2058 51.2846C41.4782 45.6652 35.7322 41.7778 29.0644 41.7778C26.6877 41.7805 24.3385 42.2872 22.1719 43.2644L25.3225 50.1966C26.5463 49.634 27.8762 49.3397 29.2231 49.3334ZM70.7787 49.3334C73.5497 49.3334 76.0147 50.5479 77.7449 52.4463L83.217 47.4691C81.6422 45.6799 79.7041 44.2468 77.532 43.2655C75.3599 42.2841 73.0035 41.777 70.62 41.7778C63.8653 41.7778 58.0551 45.7653 55.371 51.5056L62.2617 54.7583C63.7765 51.5623 67.0065 49.3334 70.7787 49.3334Z" fill="#EA596E"/>
<path d="M29.2222 45.5555C27.4859 45.5555 25.7665 45.8975 24.1623 46.562C22.5581 47.2265 21.1005 48.2004 19.8727 49.4282C18.6449 50.656 17.671 52.1136 17.0065 53.7178C16.342 55.322 16 57.0414 16 58.7778C16 60.5141 16.342 62.2335 17.0065 63.8377C17.671 65.4419 18.6449 66.8995 19.8727 68.1273C21.1005 69.3551 22.5581 70.329 24.1623 70.9935C25.7665 71.658 27.4859 72 29.2222 72C32.729 72 36.0921 70.6069 38.5717 68.1273C41.0514 65.6476 42.4444 62.2845 42.4444 58.7778C42.4444 55.271 41.0514 51.9079 38.5717 49.4282C36.0921 46.9486 32.729 45.5555 29.2222 45.5555ZM29.2222 68.2222C26.7174 68.2222 24.3152 67.2272 22.544 65.456C20.7728 63.6848 19.7778 61.2826 19.7778 58.7778C19.7778 56.2729 20.7728 53.8707 22.544 52.0995C24.3152 50.3284 26.7174 49.3333 29.2222 49.3333C31.727 49.3333 34.1293 50.3284 35.9005 52.0995C37.6716 53.8707 38.6667 56.2729 38.6667 58.7778C38.6667 61.2826 37.6716 63.6848 35.9005 65.456C34.1293 67.2272 31.727 68.2222 29.2222 68.2222ZM70.7778 45.5555C67.2708 45.5558 63.9075 46.9492 61.4279 49.4292C58.9482 51.9092 57.5553 55.2726 57.5556 58.7797C57.5558 62.2867 58.9492 65.6499 61.4292 68.1296C63.9092 70.6092 67.2727 72.0021 70.7797 72.0019C72.5162 72.0017 74.2356 71.6596 75.8399 70.995C77.4441 70.3303 78.9018 69.3562 80.1296 68.1282C81.3574 66.9003 82.3313 65.4425 82.9957 63.8381C83.6601 62.2338 84.002 60.5143 84.0019 58.7778C84.0018 57.0413 83.6596 55.3218 82.995 53.7175C82.3303 52.1133 81.3562 50.6556 80.1282 49.4278C78.9003 48.2001 77.4425 47.2261 75.8381 46.5617C74.2338 45.8973 72.5143 45.5554 70.7778 45.5555ZM70.7778 68.2222C68.273 68.2222 65.8707 67.2272 64.0995 65.456C62.3284 63.6848 61.3333 61.2826 61.3333 58.7778C61.3333 56.2729 62.3284 53.8707 64.0995 52.0995C65.8707 50.3284 68.273 49.3333 70.7778 49.3333C73.2826 49.3333 75.6848 50.3284 77.456 52.0995C79.2272 53.8707 80.2222 56.2729 80.2222 58.7778C80.2222 61.2826 79.2272 63.6848 77.456 65.456C75.6848 67.2272 73.2826 68.2222 70.7778 68.2222Z" fill="#292F33"/>
<path d="M72.636 58.6305C72.6235 58.5036 72.5982 58.3783 72.5605 58.2565C72.5275 58.1352 72.4826 58.0175 72.4263 57.9051C72.4018 57.8598 72.398 57.8069 72.3716 57.7635L59.1493 36.9857C59.0162 36.7763 58.8431 36.5951 58.6399 36.4527C58.4367 36.3102 58.2075 36.2091 57.9652 36.1552C57.723 36.1014 57.4725 36.0958 57.2281 36.1388C56.9837 36.1818 56.7501 36.2725 56.5408 36.4058C56.2767 36.5778 56.061 36.8142 55.9139 37.0929C55.7668 37.3715 55.6932 37.6831 55.7002 37.9982H38.6662C38.1653 37.9982 37.6848 38.1972 37.3306 38.5514C36.9764 38.9056 36.7773 39.3861 36.7773 39.887C36.7773 40.388 36.9764 40.8684 37.3306 41.2227C37.6848 41.5769 38.1653 41.7759 38.6662 41.7759H57.5551C57.6061 41.7759 57.6496 41.7495 57.7006 41.7457L67.3358 56.8889H49.9996C49.4986 56.8889 49.0182 57.0879 48.6639 57.4422C48.3097 57.7964 48.1107 58.2769 48.1107 58.7778C48.1107 59.2788 48.3097 59.7592 48.6639 60.1135C49.0182 60.4677 49.4986 60.6667 49.9996 60.6667H70.7792C71.0688 60.6608 71.3532 60.5885 71.6103 60.4552C71.6689 60.423 71.735 60.4098 71.7936 60.372C71.8502 60.3343 71.8842 60.2757 71.9352 60.236C72.1303 60.0837 72.2917 59.8927 72.4093 59.675C72.466 59.5693 72.5132 59.4673 72.551 59.3501C72.5891 59.2265 72.6144 59.0993 72.6266 58.9705C72.6341 58.9025 72.6662 58.8458 72.6662 58.7778C72.6662 58.7268 72.6398 58.6815 72.636 58.6305Z" fill="#DD2E44"/>
<path d="M56.7647 34.2222L51.2888 49.5543L40.0896 36.7571C39.9272 36.5673 39.7287 36.4116 39.5057 36.299C39.2827 36.1864 39.0396 36.1192 38.7905 36.1012C38.5413 36.0833 38.2911 36.1149 38.0542 36.1943C37.8173 36.2737 37.5986 36.3992 37.4106 36.5637C37.2226 36.7283 37.0691 36.9284 36.959 37.1526C36.8489 37.3769 36.7844 37.6207 36.7691 37.8701C36.7539 38.1194 36.7883 38.3693 36.8703 38.6052C36.9523 38.8412 37.0803 39.0586 37.2468 39.2447L49.8344 53.6286L48.2213 58.1431C48.053 58.615 48.079 59.1344 48.2937 59.5871C48.5083 60.0398 48.894 60.3887 49.3659 60.5571C49.8379 60.7254 50.3573 60.6993 50.81 60.4847C51.2627 60.27 51.6116 59.8843 51.7799 59.4124L60.7767 34.2222H56.7647Z" fill="#DD2E44"/>
<path d="M29.2219 60.6666C28.9002 60.6661 28.584 60.5835 28.3032 60.4265C28.0224 60.2696 27.7863 60.0435 27.6174 59.7697C27.4485 59.496 27.3522 59.1836 27.3378 58.8622C27.3234 58.5409 27.3914 58.2212 27.5352 57.9334L33.3189 46.3998C33.351 46.347 36.7775 41.1185 36.7775 36.1111C36.7775 29.9873 32.4463 28.4743 32.4028 28.4592C32.1645 28.3831 31.9436 28.2605 31.7531 28.0985C31.5625 27.9364 31.4061 27.7381 31.2928 27.515C31.1795 27.292 31.1117 27.0487 31.0932 26.7992C31.0747 26.5497 31.106 26.2991 31.1851 26.0618C31.2643 25.8245 31.3899 25.6053 31.5544 25.4169C31.719 25.2285 31.9194 25.0747 32.1439 24.9643C32.3684 24.854 32.6126 24.7894 32.8623 24.7742C33.112 24.7591 33.3623 24.7936 33.5985 24.876C33.8818 24.9704 40.5553 27.2956 40.5553 36.1111C40.5553 41.9062 37.0873 47.5237 36.53 48.3832L30.9125 59.6202C30.7558 59.9345 30.5147 60.199 30.216 60.3838C29.9174 60.5687 29.5731 60.6666 29.2219 60.6666Z" fill="#DD2E44"/>
<path d="M43.6004 29.8079C43.4959 29.8077 43.3917 29.7988 43.2887 29.7814L31.9554 27.8925C31.4612 27.8101 31.0199 27.5348 30.7288 27.127C30.4376 26.7193 30.3203 26.2126 30.4027 25.7184C30.4851 25.2242 30.7605 24.783 31.1682 24.4918C31.5759 24.2006 32.0826 24.0833 32.5768 24.1658L43.9101 26.0546C44.3791 26.131 44.8021 26.3813 45.0947 26.7556C45.3874 27.1299 45.5282 27.6008 45.4891 28.0744C45.45 28.5479 45.2339 28.9893 44.8838 29.3106C44.5338 29.6319 44.0755 29.8094 43.6004 29.8079ZM65.8345 36.1111L65.6664 36.0998L54.9526 34.7624C54.6041 34.7335 54.2807 34.5691 54.0519 34.3046C53.8231 34.0402 53.707 33.6966 53.7285 33.3475C53.75 32.9984 53.9074 32.6717 54.1669 32.4372C54.4264 32.2028 54.7675 32.0794 55.1169 32.0934C55.1944 32.0934 62.799 32.0594 66.4295 29.6398C66.6617 29.4849 66.9365 29.4065 67.2156 29.4153C67.4946 29.4241 67.7639 29.5197 67.9859 29.6889C68.2072 29.8588 68.37 30.0935 68.4516 30.3603C68.5331 30.6271 68.5295 30.9127 68.4411 31.1773L67.1019 35.195C67.0143 35.4618 66.8445 35.6941 66.6168 35.8587C66.3892 36.0232 66.1154 36.1116 65.8345 36.1111Z" fill="#292F33"/>
<path d="M53.7782 58.7778C53.7782 59.7797 53.3802 60.7406 52.6717 61.4491C51.9633 62.1575 51.0024 62.5556 50.0004 62.5556C48.9985 62.5556 48.0376 62.1575 47.3291 61.4491C46.6207 60.7406 46.2227 59.7797 46.2227 58.7778C46.2227 57.7758 46.6207 56.815 47.3291 56.1065C48.0376 55.398 48.9985 55 50.0004 55C51.0024 55 51.9633 55.398 52.6717 56.1065C53.3802 56.815 53.7782 57.7758 53.7782 58.7778Z" fill="#66757F"/>
</g>
<defs>
<clipPath id="clip0_185_58">
<rect width="68" height="68" fill="white" transform="translate(16 4)"/>
</clipPath>
</defs>
</svg>
