<svg width="96" height="99" viewBox="0 0 96 99" fill="none" xmlns="http://www.w3.org/2000/svg">
<path d="M67.36 47.9738C68.9622 47.9942 70.5521 47.6835 72.036 47.0601C73.5199 46.4366 74.8678 45.513 75.9999 44.3438L87.3199 32.67C88.0649 31.8971 88.4831 30.8516 88.4831 29.7619C88.4831 28.6721 88.0649 27.6266 87.3199 26.8538C86.9481 26.4671 86.5057 26.1602 86.0182 25.9508C85.5308 25.7414 85.008 25.6336 84.4799 25.6336C83.9519 25.6336 83.4291 25.7414 82.9416 25.9508C82.4542 26.1602 82.0118 26.4671 81.6399 26.8538L70.1999 38.4863C69.8281 38.8729 69.3857 39.1798 68.8983 39.3892C68.4108 39.5986 67.888 39.7064 67.36 39.7064C66.8319 39.7064 66.3091 39.5986 65.8216 39.3892C65.3342 39.1798 64.8918 38.8729 64.52 38.4863L78.68 23.925C79.0529 23.5404 79.3487 23.0838 79.5506 22.5813C79.7524 22.0788 79.8563 21.5402 79.8563 20.9963C79.8563 20.4523 79.7524 19.9137 79.5506 19.4112C79.3487 18.9087 79.0529 18.4521 78.68 18.0675C78.307 17.6829 77.8642 17.3778 77.3769 17.1697C76.8897 16.9615 76.3674 16.8544 75.8399 16.8544C75.3125 16.8544 74.7902 16.9615 74.3029 17.1697C73.8157 17.3778 73.3729 17.6829 72.9999 18.0675L58.88 32.67C58.1349 31.8971 57.7168 30.8516 57.7168 29.7619C57.7168 28.6721 58.1349 27.6266 58.88 26.8538L70.1999 15.18C70.5729 14.7954 70.8687 14.3388 71.0706 13.8363C71.2724 13.3338 71.3763 12.7952 71.3763 12.2513C71.3763 11.7073 71.2724 11.1687 71.0706 10.6662C70.8687 10.1637 70.5729 9.70711 70.1999 9.3225C69.827 8.93789 69.3842 8.63281 68.8969 8.42466C68.4097 8.21651 67.8874 8.10937 67.36 8.10938C66.8325 8.10938 66.3102 8.21651 65.823 8.42466C65.3357 8.63281 64.8929 8.93789 64.52 9.3225L53.2 20.9963C50.9527 23.3166 49.6905 26.4619 49.6905 29.7413C49.6905 33.0206 50.9527 36.1659 53.2 38.4863L48 43.8075L14.92 9.57L14.52 9.3225C14.3158 9.13807 14.0867 8.98522 13.84 8.86875L13.1199 8.58L12.64 8.25H11.56C11.3213 8.21267 11.0786 8.21267 10.84 8.25C10.5978 8.34089 10.369 8.46582 10.1599 8.62125L9.51995 9.03375H9.23995L8.99995 9.44625C8.83065 9.66405 8.68323 9.899 8.55995 10.1475C8.44114 10.3983 8.34733 10.6609 8.27995 10.9313C8.27995 10.9313 8.27995 11.22 8.27995 11.385C7.30929 18.3621 7.92815 25.4764 10.0875 32.1639C12.2468 38.8514 15.8871 44.9282 20.7199 49.9125L31.28 60.7612L9.63995 83.0362C9.26504 83.4197 8.96746 83.876 8.76438 84.3786C8.56131 84.8813 8.45676 85.4205 8.45676 85.965C8.45676 86.5096 8.56131 87.0487 8.76438 87.5514C8.96746 88.054 9.26504 88.5103 9.63995 88.8937C10.0137 89.2761 10.457 89.5785 10.9443 89.7838C11.4317 89.9891 11.9535 90.0931 12.4799 90.09C13.0064 90.0931 13.5282 89.9891 14.0156 89.7838C14.5029 89.5785 14.9462 89.2761 15.32 88.8937L39.6 64.2262L50.9199 52.5525L58.9199 44.3025C61.1519 46.629 64.1866 47.949 67.36 47.9738ZM36.7599 55.4813L26.24 44.5913C20.4738 38.5635 16.8633 30.6952 15.9999 22.275L42.44 49.5L36.7599 55.4813ZM61.72 57.8325C60.9667 57.0503 59.9431 56.6087 58.8741 56.6048C57.8051 56.6009 56.7785 57.0351 56.02 57.8119C55.2614 58.5886 54.8332 59.6443 54.8294 60.7467C54.8257 61.849 55.2467 62.9078 56 63.69L81.1999 89.6775C81.964 90.3944 82.9673 90.7788 84 90.75C84.5264 90.7531 85.0482 90.6491 85.5356 90.4438C86.0229 90.2385 86.4662 89.9361 86.8399 89.5537C87.2149 89.1703 87.5124 88.7141 87.7155 88.2114C87.9186 87.7087 88.0231 87.1695 88.0231 86.625C88.0231 86.0804 87.9186 85.5413 87.7155 85.0386C87.5124 84.5359 87.2149 84.0797 86.8399 83.6963L61.72 57.8325Z" fill="#F8F8F8"/>
</svg>
