<svg width="88" height="83" viewBox="0 0 88 83" fill="none" xmlns="http://www.w3.org/2000/svg">
<g clip-path="url(#clip0_157_39)">
<path d="M69.1426 26.6786C72.4767 26.6786 75.6743 25.4294 78.0319 23.2057C80.3895 20.9821 81.714 17.9661 81.714 14.8214C81.714 11.6767 80.3895 8.66082 78.0319 6.43717C75.6743 4.21353 72.4767 2.96429 69.1426 2.96429C65.8084 2.96429 62.6108 4.21353 60.2532 6.43717C57.8956 8.66082 56.5711 11.6767 56.5711 14.8214C56.5711 17.9661 57.8956 20.9821 60.2532 23.2057C62.6108 25.4294 65.8084 26.6786 69.1426 26.6786ZM69.1426 38.5357C53.4283 38.5357 53.4283 80.0357 53.4283 80.0357H84.8568C84.8568 80.0357 84.8568 38.5357 69.1426 38.5357ZM18.8569 26.6786C22.191 26.6786 25.3886 25.4294 27.7462 23.2057C30.1038 20.9821 31.4283 17.9661 31.4283 14.8214C31.4283 11.6767 30.1038 8.66082 27.7462 6.43717C25.3886 4.21353 22.191 2.96429 18.8569 2.96429C15.5227 2.96429 12.3251 4.21353 9.96752 6.43717C7.60992 8.66082 6.28543 11.6767 6.28543 14.8214C6.28543 17.9661 7.60992 20.9821 9.96752 23.2057C12.3251 25.4294 15.5227 26.6786 18.8569 26.6786ZM18.8569 80.0357C3.14258 80.0357 3.14258 38.5357 3.14258 38.5357H34.5711C34.5711 38.5357 34.5711 80.0357 18.8569 80.0357Z" stroke="#F8F8F8" stroke-width="6" stroke-linecap="round" stroke-linejoin="round"/>
</g>
<defs>
<clipPath id="clip0_157_39">
<rect width="88" height="83" fill="white"/>
</clipPath>
</defs>
</svg>
