<svg width="50" height="50" viewBox="0 0 50 50" fill="none" xmlns="http://www.w3.org/2000/svg">
<path d="M39.6881 10.2291C37.7779 8.30017 35.5028 6.77071 32.9955 5.72987C30.4881 4.68903 27.7987 4.15762 25.084 4.16662C13.709 4.16662 4.43815 13.4374 4.43815 24.8124C4.43815 28.4583 5.39648 32 7.18815 35.125L4.27148 45.8333L15.209 42.9583C18.2298 44.6041 21.6256 45.4791 25.084 45.4791C36.459 45.4791 45.7298 36.2083 45.7298 24.8333C45.7298 19.3124 43.584 14.1249 39.6881 10.2291ZM25.084 41.9791C22.0006 41.9791 18.9798 41.1458 16.334 39.5833L15.709 39.2083L9.20898 40.9166L10.9382 34.5833L10.5215 33.9375C8.80804 31.2022 7.89841 28.0401 7.89648 24.8124C7.89648 15.3541 15.6048 7.64578 25.0631 7.64578C29.6465 7.64578 33.959 9.43745 37.1882 12.6874C38.7874 14.2788 40.0547 16.1719 40.9165 18.2569C41.7784 20.3419 42.2177 22.5772 42.209 24.8333C42.2507 34.2916 34.5423 41.9791 25.084 41.9791ZM34.5006 29.1458C33.9798 28.8958 31.4381 27.6458 30.9798 27.4583C30.5006 27.2916 30.1673 27.2083 29.8132 27.7083C29.459 28.2291 28.4798 29.3958 28.1881 29.7291C27.8965 30.0833 27.584 30.1249 27.0631 29.8541C26.5423 29.6041 24.8756 29.0416 22.9173 27.2916C21.3756 25.9166 20.3548 24.2291 20.0423 23.7083C19.7506 23.1875 20.0006 22.9166 20.2715 22.6458C20.5006 22.4166 20.7923 22.0416 21.0423 21.7499C21.2923 21.4583 21.3965 21.2291 21.5632 20.8958C21.7298 20.5416 21.6465 20.2499 21.5215 19.9999C21.3965 19.7499 20.3548 17.2083 19.9381 16.1666C19.5215 15.1666 19.084 15.2916 18.7715 15.2708H17.7715C17.4173 15.2708 16.8756 15.3958 16.3965 15.9166C15.9381 16.4374 14.6048 17.6874 14.6048 20.2291C14.6048 22.7708 16.459 25.2291 16.709 25.5625C16.959 25.9166 20.3548 31.1249 25.5215 33.3541C26.7506 33.8958 27.709 34.2083 28.459 34.4375C29.6881 34.8333 30.8132 34.7708 31.709 34.6458C32.709 34.4999 34.7715 33.3958 35.1881 32.1874C35.6256 30.9791 35.6257 29.9583 35.4798 29.7291C35.334 29.5 35.0215 29.3958 34.5006 29.1458Z" fill="white"/>
</svg>
